<svg width="31" height="31" viewBox="0 0 31 31" fill="none" xmlns="http://www.w3.org/2000/svg">
<mask id="mask0_356_1055" style="mask-type:alpha" maskUnits="userSpaceOnUse" x="0" y="0" width="31" height="31">
<rect x="31" y="31" width="31" height="31" transform="rotate(-180 31 31)" fill="#D9D9D9"/>
</mask>
<g mask="url(#mask0_356_1055)">
<path d="M16.7918 12.6557V23.2474C16.7918 23.6134 16.668 23.9201 16.4204 24.1677C16.1729 24.4153 15.8661 24.5391 15.5001 24.5391C15.1342 24.5391 14.8274 24.4153 14.5798 24.1677C14.3322 23.9201 14.2085 23.6134 14.2085 23.2474V12.6557L10.4626 16.4016C10.2258 16.6384 9.92444 16.7568 9.55846 16.7568C9.19249 16.7568 8.8911 16.6384 8.6543 16.4016C8.41749 16.1648 8.29909 15.8634 8.29909 15.4974C8.29909 15.1314 8.41749 14.83 8.6543 14.5932L14.596 8.65156C14.8543 8.39323 15.1557 8.26406 15.5001 8.26406C15.8446 8.26406 16.146 8.39323 16.4043 8.65156L22.346 14.5932C22.5828 14.83 22.7012 15.1314 22.7012 15.4974C22.7012 15.8634 22.5828 16.1648 22.346 16.4016C22.1092 16.6384 21.8078 16.7568 21.4418 16.7568C21.0758 16.7568 20.7744 16.6384 20.5376 16.4016L16.7918 12.6557Z" fill="#1C1B1F"/>
</g>
</svg>
