<svg xmlns="http://www.w3.org/2000/svg" xmlns:xlink="http://www.w3.org/1999/xlink" width="220" zoomAndPan="magnify" viewBox="0 0 165 104.999996" height="140" preserveAspectRatio="xMidYMid meet" version="1.0"><defs><g/></defs><g fill="#000000" fill-opacity="1"><g transform="translate(29.429526, 94.591089)"><g><path d="M 6.484375 0 L 6.484375 -80.421875 L 25.421875 -80.421875 L 25.421875 0 Z M 6.484375 0 "/></g></g></g><g fill="#000000" fill-opacity="1"><g transform="translate(57.111714, 92.79935)"><g><path d="M 11.375 0.953125 C 9.539062 0.953125 7.972656 0.304688 6.671875 -0.984375 C 5.378906 -2.285156 4.734375 -3.851562 4.734375 -5.6875 C 4.734375 -7.519531 5.378906 -9.082031 6.671875 -10.375 C 7.972656 -11.664062 9.539062 -12.3125 11.375 -12.3125 C 13.207031 -12.3125 14.753906 -11.664062 16.015625 -10.375 C 17.273438 -9.082031 17.90625 -7.519531 17.90625 -5.6875 C 17.90625 -3.851562 17.273438 -2.285156 16.015625 -0.984375 C 14.753906 0.304688 13.207031 0.953125 11.375 0.953125 Z M 11.375 0.953125 "/></g></g></g><g fill="#000000" fill-opacity="1"><g transform="translate(2.186294, 94.591089)"><g><path d="M 16.609375 -60.0625 C 13.835938 -60.0625 11.457031 -61.054688 9.46875 -63.046875 C 7.476562 -65.035156 6.484375 -67.457031 6.484375 -70.3125 C 6.484375 -73.070312 7.476562 -75.445312 9.46875 -77.4375 C 11.457031 -79.425781 13.835938 -80.421875 16.609375 -80.421875 C 19.460938 -80.421875 21.882812 -79.425781 23.875 -77.4375 C 25.863281 -75.445312 26.859375 -73.070312 26.859375 -70.3125 C 26.859375 -67.457031 25.863281 -65.035156 23.875 -63.046875 C 21.882812 -61.054688 19.460938 -60.0625 16.609375 -60.0625 Z M 7.140625 0 L 7.140625 -52.921875 L 26.078125 -52.796875 L 26.078125 0 Z M 7.140625 0 "/></g></g></g><g fill="#000000" fill-opacity="1"><g transform="translate(82.784052, 95.64813)"><g><path d="M 6.046875 0 L 1.65625 0 L 1.65625 -16.015625 L 6.0625 -16.015625 C 8.738281 -16.015625 10.78125 -15.3125 12.1875 -13.90625 C 13.59375 -12.507812 14.296875 -10.523438 14.296875 -7.953125 C 14.296875 -5.421875 13.585938 -3.460938 12.171875 -2.078125 C 10.753906 -0.691406 8.710938 0 6.046875 0 Z M 3.59375 -14.265625 L 3.59375 -1.734375 L 6.015625 -1.734375 C 6.859375 -1.734375 7.660156 -1.820312 8.421875 -2 C 9.179688 -2.175781 9.851562 -2.488281 10.4375 -2.9375 C 11.03125 -3.394531 11.5 -4.03125 11.84375 -4.84375 C 12.1875 -5.65625 12.359375 -6.691406 12.359375 -7.953125 C 12.359375 -9.515625 12.085938 -10.753906 11.546875 -11.671875 C 11.015625 -12.585938 10.273438 -13.25 9.328125 -13.65625 C 8.378906 -14.0625 7.285156 -14.265625 6.046875 -14.265625 Z M 3.59375 -14.265625 "/></g></g></g><g fill="#000000" fill-opacity="1"><g transform="translate(98.138841, 95.64813)"><g><path d="M 6.65625 0.203125 C 5.550781 0.203125 4.570312 -0.0546875 3.71875 -0.578125 C 2.863281 -1.097656 2.195312 -1.8125 1.71875 -2.71875 C 1.238281 -3.625 1 -4.640625 1 -5.765625 C 1 -6.816406 1.21875 -7.800781 1.65625 -8.71875 C 2.09375 -9.644531 2.726562 -10.390625 3.5625 -10.953125 C 4.40625 -11.523438 5.421875 -11.8125 6.609375 -11.8125 C 7.585938 -11.8125 8.5 -11.59375 9.34375 -11.15625 C 10.195312 -10.726562 10.890625 -10.085938 11.421875 -9.234375 C 11.953125 -8.378906 12.21875 -7.328125 12.21875 -6.078125 L 12.21875 -5.453125 L 2.765625 -5.453125 C 2.796875 -5.046875 2.875 -4.660156 3 -4.296875 C 3.289062 -3.398438 3.757812 -2.6875 4.40625 -2.15625 C 5.050781 -1.625 5.789062 -1.359375 6.625 -1.359375 C 7.507812 -1.359375 8.242188 -1.59375 8.828125 -2.0625 C 9.421875 -2.53125 9.84375 -3.085938 10.09375 -3.734375 L 12 -3.734375 C 11.757812 -3.003906 11.398438 -2.34375 10.921875 -1.75 C 10.453125 -1.15625 9.863281 -0.679688 9.15625 -0.328125 C 8.445312 0.0234375 7.613281 0.203125 6.65625 0.203125 Z M 2.9375 -7.03125 L 10.296875 -7.03125 C 10.285156 -7.226562 10.257812 -7.421875 10.21875 -7.609375 C 10.175781 -7.804688 10.117188 -7.988281 10.046875 -8.15625 C 9.742188 -8.832031 9.285156 -9.347656 8.671875 -9.703125 C 8.066406 -10.054688 7.394531 -10.234375 6.65625 -10.234375 C 5.882812 -10.234375 5.207031 -10.050781 4.625 -9.6875 C 4.039062 -9.332031 3.59375 -8.820312 3.28125 -8.15625 C 3.1875 -7.976562 3.113281 -7.789062 3.0625 -7.59375 C 3.007812 -7.394531 2.96875 -7.207031 2.9375 -7.03125 Z M 2.9375 -7.03125 "/></g></g></g><g fill="#000000" fill-opacity="1"><g transform="translate(111.333054, 95.64813)"><g><path d="M 6.171875 0.203125 C 4.679688 0.203125 3.476562 -0.144531 2.5625 -0.84375 C 1.65625 -1.550781 1.101562 -2.515625 0.90625 -3.734375 L 2.765625 -3.734375 C 2.921875 -3.035156 3.269531 -2.460938 3.8125 -2.015625 C 4.363281 -1.578125 5.15625 -1.359375 6.1875 -1.359375 C 6.96875 -1.359375 7.609375 -1.507812 8.109375 -1.8125 C 8.609375 -2.113281 8.859375 -2.554688 8.859375 -3.140625 C 8.859375 -3.628906 8.703125 -4.003906 8.390625 -4.265625 C 8.085938 -4.535156 7.6875 -4.738281 7.1875 -4.875 C 6.6875 -5.019531 6.148438 -5.148438 5.578125 -5.265625 C 5.078125 -5.359375 4.578125 -5.46875 4.078125 -5.59375 C 3.585938 -5.726562 3.140625 -5.90625 2.734375 -6.125 C 2.328125 -6.351562 2 -6.65625 1.75 -7.03125 C 1.507812 -7.40625 1.390625 -7.890625 1.390625 -8.484375 C 1.390625 -9.203125 1.570312 -9.8125 1.9375 -10.3125 C 2.3125 -10.8125 2.816406 -11.1875 3.453125 -11.4375 C 4.097656 -11.6875 4.816406 -11.8125 5.609375 -11.8125 C 6.859375 -11.8125 7.90625 -11.484375 8.75 -10.828125 C 9.59375 -10.179688 10.109375 -9.28125 10.296875 -8.125 L 8.640625 -8.125 C 8.460938 -8.863281 8.101562 -9.398438 7.5625 -9.734375 C 7.019531 -10.066406 6.367188 -10.234375 5.609375 -10.234375 C 4.835938 -10.234375 4.238281 -10.085938 3.8125 -9.796875 C 3.382812 -9.515625 3.171875 -9.125 3.171875 -8.625 C 3.171875 -8.21875 3.3125 -7.898438 3.59375 -7.671875 C 3.882812 -7.441406 4.257812 -7.265625 4.71875 -7.140625 C 5.175781 -7.023438 5.675781 -6.910156 6.21875 -6.796875 C 6.726562 -6.703125 7.242188 -6.585938 7.765625 -6.453125 C 8.296875 -6.316406 8.773438 -6.128906 9.203125 -5.890625 C 9.640625 -5.660156 9.988281 -5.34375 10.25 -4.9375 C 10.507812 -4.53125 10.640625 -4 10.640625 -3.34375 C 10.640625 -2.269531 10.25 -1.410156 9.46875 -0.765625 C 8.695312 -0.117188 7.597656 0.203125 6.171875 0.203125 Z M 6.171875 0.203125 "/></g></g></g><g fill="#000000" fill-opacity="1"><g transform="translate(123.016955, 95.64813)"><g><path d="M 2.390625 -13.59375 C 2.015625 -13.59375 1.691406 -13.722656 1.421875 -13.984375 C 1.160156 -14.242188 1.03125 -14.554688 1.03125 -14.921875 C 1.03125 -15.285156 1.160156 -15.59375 1.421875 -15.84375 C 1.691406 -16.09375 2.015625 -16.21875 2.390625 -16.21875 C 2.765625 -16.21875 3.082031 -16.09375 3.34375 -15.84375 C 3.613281 -15.59375 3.75 -15.285156 3.75 -14.921875 C 3.75 -14.554688 3.613281 -14.242188 3.34375 -13.984375 C 3.082031 -13.722656 2.765625 -13.59375 2.390625 -13.59375 Z M 3.28125 0 L 1.484375 0 L 1.484375 -11.609375 L 3.28125 -11.609375 Z M 3.28125 0 "/></g></g></g><g fill="#000000" fill-opacity="1"><g transform="translate(127.778613, 95.64813)"><g><path d="M 6.609375 4.609375 C 5.828125 4.609375 5.066406 4.492188 4.328125 4.265625 C 3.597656 4.046875 2.96875 3.671875 2.4375 3.140625 C 1.914062 2.609375 1.578125 1.875 1.421875 0.9375 L 3.25 0.9375 C 3.4375 1.625 3.800781 2.144531 4.34375 2.5 C 4.882812 2.863281 5.632812 3.046875 6.59375 3.046875 C 7.8125 3.046875 8.691406 2.769531 9.234375 2.21875 C 9.773438 1.664062 10.046875 0.90625 10.046875 -0.0625 L 10.046875 -1.796875 C 9.453125 -1.035156 8.863281 -0.507812 8.28125 -0.21875 C 7.707031 0.0625 7.03125 0.203125 6.25 0.203125 C 5.21875 0.203125 4.3125 -0.046875 3.53125 -0.546875 C 2.757812 -1.046875 2.160156 -1.75 1.734375 -2.65625 C 1.304688 -3.5625 1.09375 -4.59375 1.09375 -5.75 C 1.09375 -6.945312 1.304688 -8 1.734375 -8.90625 C 2.160156 -9.820312 2.753906 -10.535156 3.515625 -11.046875 C 4.285156 -11.554688 5.191406 -11.8125 6.234375 -11.8125 C 7.046875 -11.8125 7.738281 -11.664062 8.3125 -11.375 C 8.882812 -11.082031 9.460938 -10.554688 10.046875 -9.796875 L 10.046875 -11.609375 L 11.828125 -11.609375 L 11.828125 -0.40625 C 11.828125 0.851562 11.601562 1.847656 11.15625 2.578125 C 10.71875 3.304688 10.101562 3.828125 9.3125 4.140625 C 8.53125 4.453125 7.628906 4.609375 6.609375 4.609375 Z M 6.421875 -1.359375 C 7.148438 -1.359375 7.789062 -1.550781 8.34375 -1.9375 C 8.894531 -2.320312 9.328125 -2.847656 9.640625 -3.515625 C 9.953125 -4.191406 10.109375 -4.957031 10.109375 -5.8125 C 10.109375 -6.664062 9.945312 -7.425781 9.625 -8.09375 C 9.3125 -8.757812 8.875 -9.28125 8.3125 -9.65625 C 7.757812 -10.039062 7.128906 -10.234375 6.421875 -10.234375 C 5.691406 -10.234375 5.0625 -10.035156 4.53125 -9.640625 C 4 -9.253906 3.585938 -8.726562 3.296875 -8.0625 C 3.015625 -7.40625 2.875 -6.65625 2.875 -5.8125 C 2.875 -4.96875 3.015625 -4.210938 3.296875 -3.546875 C 3.585938 -2.878906 4 -2.347656 4.53125 -1.953125 C 5.0625 -1.554688 5.691406 -1.359375 6.421875 -1.359375 Z M 6.421875 -1.359375 "/></g></g></g><g fill="#000000" fill-opacity="1"><g transform="translate(141.098676, 95.64813)"><g><path d="M 3.28125 0 L 1.484375 0 L 1.484375 -11.609375 L 3.28125 -11.609375 L 3.28125 -9.796875 C 3.863281 -10.554688 4.421875 -11.082031 4.953125 -11.375 C 5.492188 -11.664062 6.082031 -11.8125 6.71875 -11.8125 C 7.625 -11.8125 8.347656 -11.640625 8.890625 -11.296875 C 9.441406 -10.953125 9.859375 -10.515625 10.140625 -9.984375 C 10.421875 -9.472656 10.582031 -8.9375 10.625 -8.375 C 10.664062 -7.8125 10.6875 -7.347656 10.6875 -6.984375 L 10.6875 0 L 8.890625 0 L 8.890625 -6.984375 C 8.890625 -8.210938 8.664062 -9.082031 8.21875 -9.59375 C 7.832031 -10.019531 7.238281 -10.234375 6.4375 -10.234375 C 5.96875 -10.234375 5.554688 -10.15625 5.203125 -10 C 4.847656 -9.851562 4.554688 -9.644531 4.328125 -9.375 C 3.941406 -8.988281 3.671875 -8.453125 3.515625 -7.765625 C 3.359375 -7.078125 3.28125 -6.140625 3.28125 -4.953125 Z M 3.28125 0 "/></g></g></g><g fill="#000000" fill-opacity="1"><g transform="translate(153.190297, 95.64813)"><g/></g></g></svg>