<svg width="24" height="24" viewBox="0 0 24 24" fill="none" xmlns="http://www.w3.org/2000/svg">
<path d="M19.2291 15.2617L16.6891 14.9717C16.3904 14.9366 16.0877 14.9697 15.8036 15.0684C15.5196 15.1672 15.2616 15.329 15.0491 15.5417L13.2091 17.3817C10.3705 15.9377 8.06313 13.6303 6.61906 10.7917L8.46906 8.94172C8.89906 8.51172 9.10906 7.91172 9.03906 7.30172L8.74906 4.78172C8.69258 4.29381 8.45853 3.84374 8.09153 3.51731C7.72452 3.19088 7.25023 3.01092 6.75906 3.01172H5.02906C3.89906 3.01172 2.95906 3.95172 3.02906 5.08172C3.55906 13.6217 10.3891 20.4417 18.9191 20.9717C20.0491 21.0417 20.9891 20.1017 20.9891 18.9717V17.2417C20.9991 16.2317 20.2391 15.3817 19.2291 15.2617Z" fill="black"/>
</svg>
